<svg xmlns="http://www.w3.org/2000/svg" style="display: none;">
    <!-- Іконка: Соцмережа (Telegram) -->
    <symbol id="icon-tg" viewBox="0 0 24 24">
        <path d="m20.665 3.717-17.73 6.837c-1.21.486-1.203 1.161-.222 1.462l4.552 1.42 10.532-6.645c.498-.303.953-.14.579.192l-8.533 7.701h-.002l.002.001-.314 4.692c.46 0 .663-.211.921-.46l2.211-2.15 4.599 3.397c.848.467 1.457.227 1.668-.785l3.019-14.228c.309-1.239-.473-1.8-1.282-1.434z" fill="currentColor"/>
    </symbol>

    <!-- Іконка: Соцмережа (Facebook) -->
    <symbol id="icon-fb" viewBox="0 0 24 24">
        <path d="M12.001 2.002c-5.522 0-9.999 4.477-9.999 9.999 0 4.99 3.656 9.126 8.437 9.879v-6.988h-2.54v-2.891h2.54V9.798c0-2.508 1.493-3.891 3.776-3.891 1.094 0 2.24.195 2.24.195v2.459h-1.264c-1.24 0-1.628.772-1.628 1.563v1.875h2.771l-.443 2.891h-2.328v6.988C18.344 21.129 22 16.992 22 12.001c0-5.522-4.477-9.999-9.999-9.999z" fill="currentColor"/>
    </symbol>

    <!-- Іконка: Соцмережа (Instagram) -->
    <symbol id="icon-insta" viewBox="0 0 32 32">
        <path d="M22.3,8.4c-0.8,0-1.4,0.6-1.4,1.4c0,0.8,0.6,1.4,1.4,1.4c0.8,0,1.4-0.6,1.4-1.4C23.7,9,23.1,8.4,22.3,8.4z" fill="currentColor"/>
        <path d="M16,10.2c-3.3,0-5.9,2.7-5.9,5.9s2.7,5.9,5.9,5.9s5.9-2.7,5.9-5.9S19.3,10.2,16,10.2z M16,19.9c-2.1,0-3.8-1.7-3.8-3.8 c0-2.1,1.7-3.8,3.8-3.8c2.1,0,3.8,1.7,3.8,3.8C19.8,18.2,18.1,19.9,16,19.9z" fill="currentColor"/>
        <path d="M20.8,4h-9.5C7.2,4,4,7.2,4,11.2v9.5c0,4,3.2,7.2,7.2,7.2h9.5c4,0,7.2-3.2,7.2-7.2v-9.5C28,7.2,24.8,4,20.8,4z M25.7,20.8 c0,2.7-2.2,5-5,5h-9.5c-2.7,0-5-2.2-5-5v-9.5c0-2.7,2.2-5,5-5h9.5c2.7,0,5,2.2,5,5V20.8z" fill="currentColor"/>
    </symbol>

    <!-- Іконка: Знак "менше" -->
    <symbol id="icon-prev" viewBox="0 0 24 24">
        <path d="M15 5L7 12l8 7" fill="currentColor" stroke="currentColor" stroke-width="2" stroke-linecap="round" stroke-linejoin="round"/>
    </symbol>

    <!-- Іконка: Знак "більше" -->
    <symbol id="icon-next" viewBox="0 0 24 24">
        <path d="M9 5l8 7-8 7" fill="currentColor" stroke="currentColor" stroke-width="2" stroke-linecap="round" stroke-linejoin="round"/>
    </symbol>

    <!-- Іконка: Контроль якості -->
    <symbol id="quality-control" viewBox="0 0 512 512">
        <g fill="currentColor" transform="translate(32.000000, 64.000000)">
            <path d="M352,21.3333333 L437.333333,106.666667 L437.333333,362.666667 L10.6666667,362.666667 L10.6666667,118.113333 L53.3326667,167.890333 L53.3333333,320 L394.666667,320 L394.666667,117.333333 L341.333333,64 L294.347667,63.9993333 L260.007667,21.3333333 L352,21.3333333 Z M352,256 L352,288 L96,288 L96,256 L352,256 Z M224,1.42108547e-14 L277.333333,74.6666667 L138.666667,234.666667 L7.10542736e-14,74.6666667 L53.3333333,1.42108547e-14 L224,1.42108547e-14 Z M203.335667,191.999333 L352,192 L352,224 L202.666667,224 L202.666667,192.780333 L203.335667,191.999333 Z M161.673,85.333 L115.64,85.333 L138.666667,176.810667 L161.673,85.333 Z M82.614,85.333 L49.86,85.333 L108.23,165.383 L82.614,85.333 Z M227.453,85.333 L194.719,85.333 L169.108,165.366 L227.453,85.333 Z M258.192667,127.999333 L352,128 L352,160 L230.764667,159.999333 L258.192667,127.999333 Z M105.214,32 L69.7813333,32 L46.928,64 L83.881,64 L105.214,32 Z M144.52,32 L132.775,32 L119.166,64 L158.14,64 L144.52,32 Z M207.530667,32 L172.118,32 L193.452,64 L230.383,64 L207.530667,32 Z"/>
        </g>
    </symbol>

    <!-- Іконка: Власне виробництво -->
    <symbol id="own-production" viewBox="0 0 24 24">
        <path d="M12 2C6.48 2 2 6.48 2 12s4.48 10 10 10 10-4.48 10-10S17.52 2 12 2zm-2 15l-5-5 1.41-1.41L10 14.17l7.59-7.59L19 8l-9 9z" fill="currentColor"/>
    </symbol>

    <!-- Іконка: Швидка доставка -->
    <symbol id="fast-delivery" viewBox="0 0 24 24">
        <path d="M20 8h-3V4H3c-1.1 0-2 .9-2 2v11h2c0 1.66 1.34 3 3 3s3-1.34 3-3h6c0 1.66 1.34 3 3 3s3-1.34 3-3h2v-5l-3-4zM6 18.5c-.83 0-1.5-.67-1.5-1.5s.67-1.5 1.5-1.5 1.5.67 1.5 1.5-.67 1.5-1.5 1.5zm13.5-9l1.96 2.5H17V9.5h2.5zm-1.5 9c-.83 0-1.5-.67-1.5-1.5s.67-1.5 1.5-1.5 1.5.67 1.5 1.5-.67 1.5-1.5 1.5z" fill="currentColor"/>
    </symbol>

    <!-- Іконка: Гарні ціни напряму від виробника -->
    <symbol id="good-prices" viewBox="0 0 24 24">
        <path d="M2,11.308a1,1,0,0,0,.293.707l9.692,9.692a1,1,0,0,0,1.414,0L21.707,13.4a1,1,0,0,0,0-1.414L12.015,2.293A1,1,0,0,0,11.308,2H3A1,1,0,0,0,2,3ZM4,4h6.894l8.692,8.692-6.894,6.894L4,10.894ZM9.923,7.154a1.958,1.958,0,1,1-2.769,0A1.957,1.957,0,0,1,9.923,7.154Z" fill="currentColor"/>
    </symbol>

    <!-- Іконка: Постійна наявність товару -->
    <symbol id="constant-availability" viewBox="0 0 48 48">
        <path d="M20.367,26.263l1.485-1.484l-2.693-2.694l-1.484,1.486c-0.864-0.572-1.828-0.999-2.858-1.267v-2.22h-4.781 v2.22c-1.053,0.272-2.039,0.711-2.917,1.302l-1.425-1.425L3,24.873l1.449,1.449c-0.554,0.849-0.97,1.793-1.23,2.8H1v4.776h2.218 c0.267,1.031,0.694,1.998,1.267,2.862L3,38.245l2.693,2.691l1.485-1.484c0.866,0.573,1.834,1.002,2.867,1.269v2.216h4.761v-2.216 c1.01-0.26,1.957-0.678,2.808-1.231l1.544,1.543l2.693-2.691l-1.521-1.522c0.594-0.883,1.034-1.876,1.306-2.934h2.215v-4.747 h-2.215C21.371,28.103,20.943,27.131,20.367,26.263z M12.426,35.428c-2.163,0-3.917-1.754-3.917-3.917s1.754-3.917,3.917-3.917 s3.917,1.754,3.917,3.917S14.589,35.428,12.426,35.428z" fill="currentColor"/>
        <path d="M42.264,26.271V24.5h-2.876v1.771h-4.426V24.5h-2.877v1.771h-4.734v0.797v2.39v3.142v0.13v1.902v1.154 v9.028V48h2.876h6.352h0.796h6.75H47v-3.187v-9.028v-1.154v-1.902v-0.13v-3.142v-2.39v-0.797H42.264z M44.124,35.785v9.028H30.227 v-9.028H44.124z M30.227,32.599v-3.142h1.858v1.549h2.877v-1.549h4.426v1.549h2.876v-1.549h1.86v3.142H30.227z" fill="currentColor"/>
        <polygon fill="currentColor" points="36.938,11.984 36.938,13 36.938,14.083 36.938,16.5 36.938,18.084 36.938,21 40.842,21 40.842,18.084 40.842,16.5 40.842,14.083 40.842,13 40.842,11.984 40.842,9.422 31.446,0.025 28.884,0.025 4.967,0.025 4.967,17.766 8.875,17.766 8.875,5.672 8.875,4.797 8.875,3.859 27.766,3.859 28.812,3.859 28.884,3.859 28.884,4.81 28.884,5.828 28.884,11.984 31.75,11.984 36.059,11.984"/>
    </symbol>

    <!-- Іконка: Допомога у підборі -->
    <symbol id="assistance-selection" viewBox="0 0 64 64">
        <path d="M58.059,46.74L50,44.262v-2.132c1.849-1.816,3-4.34,3-7.129h1c2.757,0,5-2.243,5-5c0-1.627-0.793-3.061-2-3.974V22 c0-7.72-6.28-14-14-14c-1.826,0-3.566,0.362-5.166,1H35V6c0-2.757-2.243-5-5-5H14c-2.757,0-5,2.243-5,5v3H4c-1.654,0-3,1.346-3,3v1 v7v16c0,3.859,3.14,7,7,7h28v1.262l-8.059,2.479C24.986,47.65,23,50.34,23,53.432V63h40v-9.568C63,50.34,61.014,47.65,58.059,46.74 z M52.406,47.094l-3.739,6.482l-4.097-2.731l4.712-4.712L52.406,47.094z M41.847,57h2.306l0.667,4H41.18L41.847,57z M44.465,55 h-2.93l-0.841-1.261L43,52.202l2.306,1.537L44.465,55z M48,44.586l-5,5l-5-5v-0.939C39.473,44.502,41.178,45,43,45 s3.527-0.498,5-1.353V44.586z M51,35c0,4.411-3.589,8-8-8c-2.953,0-5.532-1.613-6.918-4h2.102c0.414,1.161,1.514,2,2.816,2h4 c1.654,0,3-1.346,3-3s-1.346-3-3-3h-4c-1.302,0-2.402,0.839-2.816,2h-2.921C35.097,36.359,35,35.692,35,35v-8.037 c3.003-0.226,5.803-1.466,8-3.555c2.197,2.089,4.997,3.329,8,3.555V35z M40,38c0-0.552,0.449-1,1-1h4c0.551,0,1,0.448,1,1 s-0.449,1-1,1h-4C40.449,39,40,38.552,40,38z M33,33h-1c-1.654,0-3-1.346-3-3s1.346-3,3-3h1V33z M31,34.899 C31.323,34.965,31.658,35,32,35h1c0,0.685,0.07,1.354,0.202,2H32c-0.551,0-1-0.448-1-1V34.899z M54,33h-1v-6h1c1.654,0,3,1.346,3,3 S55.654,33,54,33z M55,22v3.101C54.677,25.035,54.342,25,54,25h-1h-1c-2.958,0-5.738-1.151-7.828-3.242L43,20.585l-1.171,1.173 C39.738,23.849,36.958,25,34,25h-1h-1c-0.342,0-0.677,0.035-1,0.101V22c0-6.617,5.383-12,12-12S55,15.383,55,22z M11,6 c0-1.654,1.346-3,3-3h16c1.654,0,3,1.346,3,3v3h-2V5H13v4h-2V6z M29,9H15V7h14V9z M3,12c0-0.552,0.449-1,1-1h30.368 C31.106,13.565,29,17.538,29,22v3h-4v-2h-6v2H8c-2.757,0-5-2.243-5-5v-7V12z M23,25v4h-2v-4H23z M3,36V24.889 C4.272,26.19,6.042,27,8,27h11v4h6v-4h3.026C27.391,27.838,27,28.87,27,30c0,1.627,0.793,3.061,2,3.974V36c0,1.654,1.346,3,3,3 h1.841c0.314,0.716,0.713,1.383,1.178,2H8C5.243,41,3,38.757,3,36z M36.719,46.133l4.712,4.712l-4.101,2.734l-3.771-6.474 L36.719,46.133z M25,53.432c0-2.209,1.418-4.13,3.529-4.779l3.066-0.943l5.075,8.712l2.359-1.573l0.918,1.378L39.153,61H33v-5h-2v5 h-6V53.432z M61,61h-6v-5h-2v5h-6.153l-0.796-4.774l0.918-1.377l2.363,1.576l5.034-8.726l3.103,0.955 c2.111,0.649,3.53,2.57,3.53,4.779V61z" fill="currentColor"/>
        <circle cx="38" cy="29" r="1" fill="currentColor"/>
        <circle cx="48" cy="29" r="1" fill="currentColor"/>
        <rect height="2" width="2" x="15" y="29" fill="currentColor"/>
        <rect height="2" width="2" x="11" y="29" fill="currentColor"/>
    </symbol>

    <!-- Іконка: Акції та знижки -->
    <symbol id="promotions-discounts" viewBox="0 0 52 52">
        <path d="M29,34.21a.33.33,0,0,1-.25.16H27.55a.32.32,0,0,1-.28-.16.31.31,0,0,1,0-.32l8.81-16.14a.37.37,0,0,1,.26-.16h1.31a.33.33,0,0,1,.16.43h0Z" fill="currentColor"/>
        <path d="M37.88,28.35a1.77,1.77,0,1,1-1.76,1.76,1.76,1.76,0,0,1,1.76-1.76m0-2.35A4.12,4.12,0,1,0,42,30.11,4.11,4.11,0,0,0,37.88,26Z" fill="currentColor"/>
        <path d="M49.11,23.69l-1.9-2.27a4.05,4.05,0,0,1-1-2.35l-.21-2.94a3.72,3.72,0,0,0-3.41-3.46l-2.54-.21a5.42,5.42,0,0,1-3.05-1.29L35.13,9.52a3.73,3.73,0,0,0-4.86,0l-2.09,1.76a4.76,4.76,0,0,1-2.76,1.12l-2.71.19A3.72,3.72,0,0,0,19.24,16L19,18.42a5.38,5.38,0,0,1-1.14,2.85v3.66L19.51,23a7.65,7.65,0,0,0,1.87-4.42l.2-2.45a1.38,1.38,0,0,1,1.3-1.26l2.7-.19A7.11,7.11,0,0,0,29.7,13l2.08-1.76a1.37,1.37,0,0,1,.89-.33,1.41,1.41,0,0,1,.93.36L35.52,13a7.63,7.63,0,0,0,4.39,1.85l2.53.21A1.36,1.36,0,0,1,43.7,16.3l.21,2.94a6.43,6.43,0,0,0,1.5,3.69l1.91,2.29a1.38,1.38,0,0,1,0,1.81l-1.56,1.78a8.18,8.18,0,0,0-2,4.69l-.22,2.37a1.37,1.37,0,0,1-1.29,1.26l-2.88.2a6.6,6.6,0,0,0-3.8,1.54l-2.22,1.85a1.39,1.39,0,0,1-.9.33,1.42,1.42,0,0,1-.92-.35L29.61,39a7.64,7.64,0,0,0-4.39-1.86L22.67,37a1.36,1.36,0,0,1-1.24-1.16l-1.78,1.78a3.72,3.72,0,0,0,2.83,1.73l2.54.22a5.36,5.36,0,0,1,3,1.29L30,42.48a3.76,3.76,0,0,0,2.46.92,3.72,3.72,0,0,0,2.41-.88l2.22-1.85a4.26,4.26,0,0,1,2.46-1l2.88-.21a3.73,3.73,0,0,0,3.47-3.41l.21-2.35a5.91,5.91,0,0,1,1.43-3.36l1.55-1.77A3.74,3.74,0,0,0,49.11,23.69Z" fill="currentColor"/>
        <path d="M11.43,12.13V31.64a.59.59,0,0,1-1,.41L4.79,26.41a.85.85,0,0,0-1.23,0L2.26,27.7a.86.86,0,0,0,0,1.24L12.61,39.22a.84.84,0,0,0,1.23,0L24.13,28.94a.86.86,0,0,0,0-1.24l-1.24-1.23a.85.85,0,0,0-1.23,0L16,32.11A.63.63,0,0,1,15,31.7V12.19a.85.85,0,0,0-.82-.88H12.37A.91.91,0,0,0,11.43,12.13Z" fill="currentColor"/>
        <path d="M27.3,20.12a1.77,1.77,0,1,1-1.76,1.77,1.76,1.76,0,0,1,1.76-1.77m0-2.35a4.12,4.12,0,1,0,4.12,4.12,4.11,4.11,0,0,0-4.12-4.12Z" fill="currentColor"/>
    </symbol>

    <!-- Іконка: Консультація фахівця -->
    <symbol id="expert-consultation" viewBox="0 0 943.118 943.118">
        <path d="M54.182,670.915v189.128c0,11.047,8.955,20,20,20h362.347c-3.137-6.688-4.899-14.143-4.899-22.006V670.915H54.182z" fill="currentColor"/>
        <path d="M30,639.904h24.182h377.446V622.67v-24.418c0-0.229,0.007-0.456,0.009-0.685c0.107-15.218,3.8-29.6,10.277-42.337 c2.796-5.496,6.107-10.688,9.873-15.506c4.478-5.729,9.597-10.934,15.245-15.507c16.361-13.248,37.182-21.197,59.827-21.197 h22.555v-43.313c0-32.846-26.627-59.473-59.473-59.473h-53.809c-10.504,0-19.628,7.229-22.029,17.455l-25.013,106.529 l-3.642,15.507l-2.578,10.977c-0.36,1.538-0.785,3.049-1.271,4.528h-16.584c-0.183-5.188-0.711-10.367-1.577-15.506 c-0.148-0.892-0.306-1.779-0.476-2.666l-3.326-12.841l-19.571-75.542l15.62-34.473c2.965-6.545-1.82-13.968-9.006-13.968h-33.525 c-7.186,0-11.972,7.423-9.006,13.968l15.62,34.473l-20.313,75.542l-3.086,11.478c-0.268,1.339-0.506,2.683-0.728,4.029 c-0.848,5.14-1.36,10.317-1.527,15.506h-15.88c-0.484-1.48-0.909-2.99-1.271-4.528l-2.578-10.977l-3.641-15.508l-25.013-106.525 c-2.401-10.227-11.524-17.455-22.029-17.455h-53.808c-32.846,0-59.473,26.627-59.473,59.473v64.513v15.506v15.506H30 c-16.568,0-30,13.431-30,30v24.674C0,626.474,13.432,639.904,30,639.904z" fill="currentColor"/>
        <path d="M329.919,368.094c73.717,0,133.477-59.76,133.477-133.477V92.744c0-18.391-16.561-32.347-34.686-29.233 c-39.276,6.747-128.839,24.62-184.565,35.864c-27.752,5.599-47.704,29.986-47.704,58.297v76.946 C196.442,308.335,256.202,368.094,329.919,368.094z" fill="currentColor"/>
        <path d="M526.859,533.021c-10.345,0-20.121,2.418-28.812,6.703c-7.723,3.809-14.576,9.102-20.201,15.506 c-9.95,11.325-16.036,26.118-16.204,42.337c-0.002,0.229-0.017,0.455-0.017,0.685v24.418v17.234v15.505v15.506v187.122 c0,12.154,9.853,22.006,22.005,22.006h334.086h103.396c12.153,0,22.006-9.852,22.006-22.006V598.252 c0-31.565-22.422-57.893-52.209-63.928c-4.207-0.852-8.562-1.303-13.021-1.303H549.414H526.859L526.859,533.021z" fill="currentColor"/>
        <path d="M702.375,497.769c80.854,0,146.4-65.546,146.4-146.4v-84.396c0-31.052-21.886-57.8-52.322-63.941 c-61.123-12.332-159.355-31.935-202.434-39.336c-1.879-0.323-3.743-0.478-5.577-0.478c-17.574,0-32.468,14.276-32.468,32.542 v155.609C555.975,432.223,621.52,497.769,702.375,497.769z" fill="currentColor"/>
    </symbol>
    
</svg>